<svg width="8" height="8" viewBox="0 0 8 8" fill="none" xmlns="http://www.w3.org/2000/svg">
<path d="M0.270413 6.42428L2.69437 4.00005L0.270413 1.57595C-0.0901375 1.21526 -0.0901375 0.630986 0.270413 0.270295C0.450562 0.0901442 0.68675 0 0.922822 0C1.15929 0 1.3955 0.0900064 1.57551 0.270295L3.99999 2.69468L6.42429 0.270318C6.60441 0.0901675 6.84062 2.28882e-05 7.0769 2.28882e-05C7.31311 2.28882e-05 7.54916 0.0900297 7.72945 0.270318C8.09 0.630848 8.09 1.21514 7.72945 1.57597L5.30556 4.00008L7.72959 6.42428C8.09014 6.78483 8.09014 7.36924 7.72959 7.72979C7.3691 8.09007 6.78504 8.09007 6.42442 7.72979L4.00001 5.30557L1.57578 7.72979C1.21509 8.09007 0.630964 8.09007 0.270551 7.72979C-0.0901384 7.36924 -0.0901375 6.78483 0.270413 6.42428Z" fill="#DF362F"/>
</svg>
